PathFileType	4	(X/Y/Z)	C:/Users/opensim2020/Desktop/walking_exp_matlab/subject03_walking04_static.trc	
DataRate	CameraRate	NumFrames	NumMarkers	Units	OrigDataRate	OrigDataStartFrame	OrigNumFrames	
100.00	100.00	6	51	mm	100.00	281	196	
Frame#	Time	LFHD			RFHD			LBHD			RBHD			C7			T10			CLAV			STRN			RBAK			LSHO			LUPA			LELB			LFRM			LWRA			LWRB			LFIN			RSHO			RUPA			RELB			RFRM			RWRA			RWRB			RFIN			LASI			RASI			LPSI			RPSI			LTHI			LKNE			LTIB			LANK			LHEE			LTOE			RTHI			RKNE			RTIB			RANK			RHEE			RTOE			*39			*40			*41			*42			*43			*44			*45			*46			*47			*48			*49			*50			
		X1	Y1	Z1	X2	Y2	Z2	X3	Y3	Z3	X4	Y4	Z4	X5	Y5	Z5	X6	Y6	Z6	X7	Y7	Z7	X8	Y8	Z8	X9	Y9	Z9	X10	Y10	Z10	X11	Y11	Z11	X12	Y12	Z12	X13	Y13	Z13	X14	Y14	Z14	X15	Y15	Z15	X16	Y16	Z16	X17	Y17	Z17	X18	Y18	Z18	X19	Y19	Z19	X20	Y20	Z20	X21	Y21	Z21	X22	Y22	Z22	X23	Y23	Z23	X24	Y24	Z24	X25	Y25	Z25	X26	Y26	Z26	X27	Y27	Z27	X28	Y28	Z28	X29	Y29	Z29	X30	Y30	Z30	X31	Y31	Z31	X32	Y32	Z32	X33	Y33	Z33	X34	Y34	Z34	X35	Y35	Z35	X36	Y36	Z36	X37	Y37	Z37	X38	Y38	Z38	X39	Y39	Z39	X40	Y40	Z40	X41	Y41	Z41	X42	Y42	Z42	X43	Y43	Z43	X44	Y44	Z44	X45	Y45	Z45	X46	Y46	Z46	X47	Y47	Z47	X48	Y48	Z48	X49	Y49	Z49	X50	Y50	Z50	X51	Y51	Z51	

99	0.980	347.36145	-672.63263	1630.87769	377.13632	-543.12653	1643.67786	475.08414	-693.33038	1589.84070	499.77762	-565.34601	1602.71521	516.36835	-626.29779	1426.48035	535.07361	-616.91559	1114.81958	388.20932	-609.84387	1361.77136	334.17322	-607.81378	1197.71155	568.33429	-535.20789	1248.01514	436.06161	-769.93707	1397.21118	450.58951	-853.21655	1206.99756	447.22253	-880.25110	1086.88269	415.60544	-898.64087	961.57245	382.47800	-886.50201	844.00885	417.86349	-929.63477	850.60248	393.88293	-931.78241	768.88806	469.56854	-461.25568	1389.68665	477.27930	-365.69571	1179.38672	462.18130	-331.73587	1072.09607	441.04675	-303.28558	939.07782	398.07977	-313.62790	842.79089	440.50192	-279.24249	840.81628	412.73062	-273.12848	770.84711	378.70840	-719.48999	945.90094	392.12457	-485.59036	946.57794	542.88171	-681.01904	979.15283	548.19666	-531.80420	987.10034	449.42395	-771.98358	646.95056	458.57813	-735.25385	469.52911	516.26172	-754.36688	285.54434	539.23621	-729.69586	73.95067	580.73212	-696.95386	36.93956	386.99185	-709.15125	34.43055	466.92136	-440.22641	653.62476	463.07764	-473.27222	474.12976	517.59607	-462.25705	292.86429	546.82678	-501.41510	76.28805	587.31586	-552.66406	42.05175	404.86542	-500.45261	36.41323	436.87952	-645.77966	1697.65747																																	 
100	0.990	347.12756	-672.81653	1630.85156	376.92822	-543.33398	1643.67493	474.87509	-693.52454	1589.81628	499.55588	-565.55322	1602.73450	516.17236	-626.44916	1426.45886	534.81787	-617.08392	1114.81030	388.00897	-609.91168	1361.77771	333.94891	-607.83441	1197.70154	568.18317	-535.36920	1247.96399	435.74762	-770.04987	1397.16516	450.27264	-853.33368	1206.97742	446.76678	-880.30377	1086.82764	415.16254	-898.63348	961.53632	381.93045	-886.24420	843.93390	417.20364	-929.68060	850.55560	393.23300	-931.65686	768.82990	469.52295	-461.39496	1389.70288	477.22629	-365.76926	1179.39404	462.13718	-331.79843	1072.10596	441.03174	-303.29590	939.11066	397.89514	-313.63742	842.75464	440.46866	-279.20480	840.82495	412.67075	-273.07605	770.85547	378.43723	-719.51660	945.84186	391.95337	-485.62393	946.56714	542.55463	-681.04633	979.14319	548.03503	-531.81738	987.08826	449.20587	-772.03162	646.92639	458.44901	-735.27441	469.51599	516.17584	-754.41321	285.55402	539.20984	-729.69287	73.99152	580.72882	-696.98322	36.96283	386.98224	-709.17389	34.44411	466.79605	-440.25531	653.62128	462.94238	-473.29559	474.11383	517.52338	-462.28546	292.87546	546.75006	-501.36810	76.34481	587.41235	-552.93616	42.12713	404.86826	-500.45871	36.38968	436.67471	-646.09833	1697.67395																																	 
101	1.000	346.91467	-673.03534	1630.81775	376.76370	-543.52362	1643.73767	474.66296	-693.69940	1589.77612	499.35236	-565.78815	1602.76172	515.91760	-626.58954	1426.37195	534.58740	-617.20300	1114.77332	387.80045	-609.98242	1361.73938	333.72806	-607.80731	1197.70142	568.00122	-535.59375	1247.91980	435.40915	-770.14655	1397.09351	449.91919	-853.41406	1206.87646	446.38199	-880.32855	1086.70459	414.66574	-898.58942	961.45874	381.39740	-886.14166	843.87781	416.60895	-929.59570	850.44830	392.51505	-931.40613	768.74957	469.45316	-461.48773	1389.70020	477.12393	-365.86099	1179.41418	462.08139	-331.83481	1072.13794	440.96658	-303.29190	939.11725	397.96600	-313.51352	842.84387	440.42474	-279.20041	840.88721	412.65363	-272.99286	770.91028	378.13092	-719.54626	945.85040	391.77396	-485.68524	946.55072	542.31372	-681.19391	979.15295	547.80865	-531.96838	987.07532	448.98303	-772.06152	646.90515	458.31339	-735.33722	469.49506	516.06561	-754.44617	285.54236	539.19580	-729.70880	73.98920	580.71527	-696.97931	36.94450	386.98203	-709.16895	34.41657	466.69351	-440.29950	653.61646	462.82800	-473.37476	474.11746	517.45660	-462.32281	292.87341	546.73492	-501.38165	76.38125	587.40649	-552.96442	42.13839	404.86731	-500.45593	36.40556	436.46655	-646.27734	1697.64355																																	 
102	1.010	346.69354	-673.25641	1630.79211	376.62238	-543.75293	1643.75525	474.42859	-693.92981	1589.73340	499.16010	-565.98358	1602.79297	515.72748	-626.78442	1426.34753	534.39331	-617.36310	1114.80286	387.61453	-610.03302	1361.71643	333.49228	-607.79309	1197.68188	567.85449	-535.78888	1247.89050	435.07938	-770.25201	1397.02295	449.57458	-853.60492	1206.82642	445.99200	-880.44153	1086.62524	414.20050	-898.57794	961.37933	380.87607	-886.06262	843.80615	416.11206	-929.52264	850.35162	391.90485	-931.31079	768.66364	469.38034	-461.61096	1389.64417	477.09943	-365.96326	1179.37073	462.04669	-331.89038	1072.11609	440.96375	-303.25763	939.14581	397.92981	-313.45996	842.87366	440.41696	-279.14764	840.90582	412.63913	-272.90561	770.94427	377.89764	-719.61627	945.81415	391.59790	-485.76501	946.52051	542.04083	-681.20068	979.10089	547.67627	-531.93085	987.08392	448.79562	-772.07111	646.86243	458.19144	-735.33148	469.47104	516.01263	-754.44000	285.52979	539.20117	-729.69348	73.99023	580.72803	-696.95404	36.95385	386.96973	-709.15906	34.39977	466.56216	-440.31931	653.66522	462.73740	-473.45563	474.08618	517.37543	-462.34622	292.87982	546.70111	-501.42273	76.36707	587.39673	-552.95044	42.17896	404.86142	-500.47067	36.39421	436.25916	-646.57733	1697.65381																																	 
103	1.020	346.45535	-673.45605	1630.76147	376.37784	-543.93671	1643.77881	474.23441	-694.14880	1589.69336	498.95587	-566.20062	1602.80420	515.51697	-627.00214	1426.33813	534.19354	-617.41595	1114.75024	387.42926	-610.09558	1361.71643	333.27472	-607.79602	1197.71130	567.66943	-535.96942	1247.83325	434.76303	-770.34644	1396.95862	449.17188	-853.66815	1206.74524	445.64041	-880.52344	1086.56995	413.72330	-898.57959	961.28394	380.42505	-886.07605	843.76917	415.62265	-929.46582	850.24017	391.32712	-931.25739	768.60785	469.32449	-461.73584	1389.66211	477.05527	-366.05774	1179.40576	462.02530	-331.92297	1072.16516	440.95102	-303.25772	939.18298	397.84961	-313.39282	842.88989	440.38409	-279.08157	840.96625	412.56494	-272.82764	770.99780	377.60654	-719.62878	945.80048	391.37292	-485.82623	946.52020	541.88116	-681.45337	979.14630	547.48987	-532.01746	987.10199	448.59198	-772.10217	646.85223	458.09192	-735.36237	469.45380	515.96661	-754.47504	285.57089	539.20050	-729.72131	73.96761	580.72534	-696.92572	36.96918	386.97049	-709.17114	34.43092	466.41696	-440.38391	653.65118	462.60724	-473.46381	474.11588	517.31732	-462.40015	292.91730	546.73505	-501.41211	76.39188	587.27832	-552.71899	42.08294	404.87708	-500.46753	36.39981	436.02722	-646.85760	1697.55139																																	 
104	1.030	346.22119	-673.68799	1630.69385	376.20786	-544.18719	1643.82141	473.98544	-694.38031	1589.66125	498.78302	-566.44116	1602.87439	515.28290	-627.15814	1426.33081	533.96973	-617.57709	1114.74023	387.23764	-610.16058	1361.69397	333.06818	-607.77222	1197.70361	567.48541	-536.16559	1247.82190	434.43503	-770.42914	1396.87415	448.74628	-853.72998	1206.64368	445.19244	-880.56036	1086.46057	413.23697	-898.61993	961.17401	379.91577	-886.16833	843.71594	415.13644	-929.34302	850.09125	390.85028	-931.38171	768.51587	469.23837	-461.86349	1389.61340	477.09317	-366.12646	1179.41724	461.98383	-331.97299	1072.19666	440.91776	-303.22818	939.22986	397.78839	-313.33267	842.94763	440.35089	-279.05881	841.04169	412.56433	-272.80310	770.99164	377.32813	-719.71472	945.79144	391.13983	-485.87115	946.49384	541.54620	-681.44476	979.08899	547.24634	-532.13007	987.11810	448.39032	-772.12994	646.84070	458.01987	-735.44434	469.50543	515.89911	-754.51666	285.56503	539.15948	-729.67737	73.98637	580.70886	-696.96454	37.00276	386.94785	-709.15344	34.40574	466.27762	-440.44974	653.66473	462.51065	-473.56378	474.09921	517.25366	-462.42322	292.93103	546.71143	-501.45728	76.47469	587.26935	-552.74139	42.11550	404.85178	-500.45819	36.41350	435.76547	-647.14929	1697.51257																																	 
